<svg width="61" height="62" viewBox="0 0 61 62" fill="none" xmlns="http://www.w3.org/2000/svg">
<g opacity="0.2">
<path d="M61 61.5H51V51.5H61V61.5Z" fill="url(#paint0_linear_423_34)"/>
<path d="M44 61.5H34V51.5H44V61.5Z" fill="url(#paint1_linear_423_34)"/>
<path d="M27 61.5H17V51.5H27V61.5Z" fill="url(#paint2_linear_423_34)"/>
<path d="M10 61.5H0V51.5H10V61.5Z" fill="url(#paint3_linear_423_34)"/>
<path d="M61 44.5H51V34.5H61V44.5Z" fill="url(#paint4_linear_423_34)"/>
<path d="M44 44.5H34V34.5H44V44.5Z" fill="url(#paint5_linear_423_34)"/>
<path d="M27 44.5H17V34.5H27V44.5Z" fill="url(#paint6_linear_423_34)"/>
<path d="M61 27.5H51V17.5H61V27.5Z" fill="url(#paint7_linear_423_34)"/>
<path d="M44 27.5H34V17.5H44V27.5Z" fill="url(#paint8_linear_423_34)"/>
<path d="M27 27.5H17V17.5H27V27.5Z" fill="url(#paint9_linear_423_34)"/>
<path d="M61 10.5H51V0.5H61V10.5Z" fill="url(#paint10_linear_423_34)"/>
</g>
<defs>
<linearGradient id="paint0_linear_423_34" x1="5.11296e-07" y1="1" x2="61" y2="62" gradientUnits="userSpaceOnUse">
<stop stop-color="white"/>
<stop offset="1" stop-color="#CEAE6F"/>
</linearGradient>
<linearGradient id="paint1_linear_423_34" x1="5.11296e-07" y1="1" x2="61" y2="62" gradientUnits="userSpaceOnUse">
<stop stop-color="white"/>
<stop offset="1" stop-color="#CEAE6F"/>
</linearGradient>
<linearGradient id="paint2_linear_423_34" x1="5.11296e-07" y1="1" x2="61" y2="62" gradientUnits="userSpaceOnUse">
<stop stop-color="white"/>
<stop offset="1" stop-color="#CEAE6F"/>
</linearGradient>
<linearGradient id="paint3_linear_423_34" x1="5.11296e-07" y1="1" x2="61" y2="62" gradientUnits="userSpaceOnUse">
<stop stop-color="white"/>
<stop offset="1" stop-color="#CEAE6F"/>
</linearGradient>
<linearGradient id="paint4_linear_423_34" x1="5.11296e-07" y1="1" x2="61" y2="62" gradientUnits="userSpaceOnUse">
<stop stop-color="white"/>
<stop offset="1" stop-color="#CEAE6F"/>
</linearGradient>
<linearGradient id="paint5_linear_423_34" x1="5.11296e-07" y1="1" x2="61" y2="62" gradientUnits="userSpaceOnUse">
<stop stop-color="white"/>
<stop offset="1" stop-color="#CEAE6F"/>
</linearGradient>
<linearGradient id="paint6_linear_423_34" x1="5.11296e-07" y1="1" x2="61" y2="62" gradientUnits="userSpaceOnUse">
<stop stop-color="white"/>
<stop offset="1" stop-color="#CEAE6F"/>
</linearGradient>
<linearGradient id="paint7_linear_423_34" x1="5.11296e-07" y1="1" x2="61" y2="62" gradientUnits="userSpaceOnUse">
<stop stop-color="white"/>
<stop offset="1" stop-color="#CEAE6F"/>
</linearGradient>
<linearGradient id="paint8_linear_423_34" x1="5.11296e-07" y1="1" x2="61" y2="62" gradientUnits="userSpaceOnUse">
<stop stop-color="white"/>
<stop offset="1" stop-color="#CEAE6F"/>
</linearGradient>
<linearGradient id="paint9_linear_423_34" x1="5.11296e-07" y1="1" x2="61" y2="62" gradientUnits="userSpaceOnUse">
<stop stop-color="white"/>
<stop offset="1" stop-color="#CEAE6F"/>
</linearGradient>
<linearGradient id="paint10_linear_423_34" x1="5.11296e-07" y1="1" x2="61" y2="62" gradientUnits="userSpaceOnUse">
<stop stop-color="white"/>
<stop offset="1" stop-color="#CEAE6F"/>
</linearGradient>
</defs>
</svg>
