<svg width="17" height="17" viewBox="0 0 17 17" fill="none" xmlns="http://www.w3.org/2000/svg">
<path d="M5.16653 4.50016V2.50016C5.16653 2.13198 5.46501 1.8335 5.8332 1.8335H13.8332C14.2014 1.8335 14.4999 2.13198 14.4999 2.50016V11.8335C14.4999 12.2017 14.2014 12.5002 13.8332 12.5002H11.8332V14.4996C11.8332 14.8681 11.5333 15.1668 11.162 15.1668H3.17111C2.80039 15.1668 2.5 14.8704 2.5 14.4996L2.50173 5.16741C2.5018 4.7989 2.80176 4.50016 3.17295 4.50016H5.16653ZM3.83495 5.8335L3.83346 13.8335H10.4999V5.8335H3.83495ZM6.49987 4.50016H11.8332V11.1668H13.1665V3.16683H6.49987V4.50016Z" fill="white"/>
</svg>
