<svg width="14" height="17" viewBox="0 0 14 17" fill="none" xmlns="http://www.w3.org/2000/svg">
<path d="M12.25 0.5C12.6478 0.5 13.0294 0.658035 13.3107 0.93934C13.592 1.22064 13.75 1.60218 13.75 2V11C13.75 11.3978 13.592 11.7794 13.3107 12.0607C13.0294 12.342 12.6478 12.5 12.25 12.5H10.75V14C10.75 14.3978 10.592 14.7794 10.3107 15.0607C10.0294 15.342 9.64782 15.5 9.25 15.5H1.75C1.35218 15.5 0.970644 15.342 0.68934 15.0607C0.408035 14.7794 0.25 14.3978 0.25 14V5C0.25 4.60218 0.408035 4.22064 0.68934 3.93934C0.970644 3.65804 1.35218 3.5 1.75 3.5H3.25V2C3.25 1.60218 3.40804 1.22064 3.68934 0.93934C3.97064 0.658035 4.35218 0.5 4.75 0.5H12.25ZM9.25 5H1.75V14H9.25V5ZM5.5 10.25C5.69891 10.25 5.88968 10.329 6.03033 10.4697C6.17098 10.6103 6.25 10.8011 6.25 11C6.25 11.1989 6.17098 11.3897 6.03033 11.5303C5.88968 11.671 5.69891 11.75 5.5 11.75H4C3.80109 11.75 3.61032 11.671 3.46967 11.5303C3.32902 11.3897 3.25 11.1989 3.25 11C3.25 10.8011 3.32902 10.6103 3.46967 10.4697C3.61032 10.329 3.80109 10.25 4 10.25H5.5ZM12.25 2H4.75V3.5H9.25C9.64782 3.5 10.0294 3.65804 10.3107 3.93934C10.592 4.22064 10.75 4.60218 10.75 5V11H12.25V2ZM7 7.25C7.19116 7.25021 7.37502 7.32341 7.51403 7.45464C7.65303 7.58586 7.73668 7.76521 7.74788 7.95605C7.75908 8.14688 7.69699 8.33478 7.5743 8.48137C7.45161 8.62796 7.27757 8.72217 7.08775 8.74475L7 8.75H4C3.80884 8.74979 3.62498 8.67659 3.48597 8.54536C3.34697 8.41414 3.26332 8.23479 3.25212 8.04395C3.24092 7.85312 3.30301 7.66522 3.4257 7.51863C3.54839 7.37204 3.72243 7.27783 3.91225 7.25525L4 7.25H7Z" fill="#666666"/>
</svg>
