<svg width="15" height="14" viewBox="0 0 15 14" fill="none" xmlns="http://www.w3.org/2000/svg">
<path d="M5.50065 0.666504V1.99984H9.50065V0.666504H10.834V1.99984H13.5007C13.8689 1.99984 14.1673 2.29832 14.1673 2.6665V13.3332C14.1673 13.7014 13.8689 13.9998 13.5007 13.9998H1.50065C1.13246 13.9998 0.833984 13.7014 0.833984 13.3332V2.6665C0.833984 2.29832 1.13246 1.99984 1.50065 1.99984H4.16732V0.666504H5.50065ZM12.834 7.33317H2.16732V12.6665H12.834V7.33317ZM4.83398 8.6665V9.99984H3.50065V8.6665H4.83398ZM8.16732 8.6665V9.99984H6.83398V8.6665H8.16732ZM11.5007 8.6665V9.99984H10.1673V8.6665H11.5007ZM4.16732 3.33317H2.16732V5.99984H12.834V3.33317H10.834V4.6665H9.50065V3.33317H5.50065V4.6665H4.16732V3.33317Z" fill="white"/>
</svg>
