<svg width="680" height="28" viewBox="0 0 680 28" fill="none" xmlns="http://www.w3.org/2000/svg">
<path d="M340.019 26.6289C340.944 24.364 342.42 22.3987 343.413 20.1608C345.479 15.5067 344.354 9.14551 342.43 4.59952L340.019 0L337.609 4.59952C335.685 9.14528 334.56 15.5062 336.626 20.1608C337.619 22.3987 339.094 24.3641 340.019 26.6289Z" fill="white"/>
<path d="M367.308 11.475C365.922 11.4904 364.464 11.4116 363.091 11.5809C356.535 12.2881 349.437 14.7627 345.183 20.0298C343.287 22.3771 342.319 25.0944 341.368 27.9071C342.269 27.0612 343.128 26.2658 344.181 25.6042C344.447 25.4853 344.918 25.1992 345.191 25.1528C345.875 25.0368 347.088 25.3817 347.836 25.4065C348.72 25.4359 349.636 25.3152 350.509 25.1869C357.782 24.1193 363.491 17.1925 367.308 11.475Z" fill="white"/>
<path d="M312.731 11.475C314.116 11.4904 315.575 11.4116 316.948 11.5809C323.504 12.2881 330.601 14.7627 334.855 20.0298C336.751 22.3771 337.72 25.0944 338.671 27.9071C337.77 27.0612 336.911 26.2658 335.858 25.6042C335.592 25.4853 335.12 25.1992 334.848 25.1528C334.164 25.0368 332.951 25.3817 332.202 25.4065C331.318 25.4359 330.403 25.3152 329.529 25.1869C322.257 24.1193 316.548 17.1925 312.731 11.475Z" fill="white"/>
<path d="M667.876 20.8379C667.362 21.177 666.824 21.6161 666.146 21.8619C666.326 21.4111 666.565 21.0948 666.999 20.6951C666.505 20.2712 666.41 20.025 665.438 19.8982C664.471 19.7728 663.265 19.9123 662.438 20.1865C659.666 21.1039 658.794 21.8801 655.325 22.1769V22.0286L655.664 21.9176C656.845 21.5187 657.952 21.0313 658.236 20.2674C658.47 19.6312 658.216 18.4362 657.389 17.9286C656.835 17.5913 655.759 17.0884 654.941 17C654.204 18.7268 653.446 19.7776 650.465 20.7532C649.025 21.2247 647.569 21.4816 645.86 21.5259C638.582 21.7149 631.095 21.48 623.788 21.4505L585.083 21.4534L424.579 21.4306L389.99 21.4174L383.692 21.4143C383.195 21.414 381.841 21.3269 381.416 21.413C380.283 21.6429 378.015 23.0477 377 23.5353L429.97 23.6123L581.118 23.6436L625.535 23.549C632.493 23.5332 640.044 23.2156 646.948 23.572C648.912 23.6736 650.696 24.1879 652.087 24.9013C653.522 25.6363 654.096 26.2623 654.385 27.307L654.574 28C655.651 27.9658 656.503 27.6521 657.196 27.2324C658.068 26.6994 658.552 26.0148 658.342 25.3117C658.008 24.1677 656.359 23.6275 654.689 23.0108C656.054 23.0767 657.719 23.0905 659 23.3611C662.036 24.0044 663.387 25.7408 666.97 24.4247C666.886 24.0752 666.791 23.7545 666.577 23.4176C667.334 23.4176 667.449 23.6542 668.032 23.7092C669.014 23.8015 670.823 23.516 671.8 23.3898L680 22.3399L667.873 20.8379H667.876Z" fill="white"/>
<path d="M12.124 20.8379C12.6374 21.177 13.1757 21.6161 13.8537 21.8619C13.6742 21.4111 13.4349 21.0948 13.0012 20.6951C13.4947 20.2712 13.5894 20.025 14.5614 19.8982C15.5284 19.7728 16.7347 19.9123 17.5622 20.1865C20.3335 21.1039 21.2059 21.8801 24.675 22.1769V22.0286L24.3361 21.9176C23.1547 21.5187 22.0481 21.0313 21.7641 20.2674C21.5297 19.6312 21.7839 18.4362 22.6114 17.9286C23.1647 17.5913 24.2414 17.0884 25.0588 17C25.7964 18.7268 26.554 19.7776 29.5347 20.7532C30.9752 21.2247 32.4307 21.4816 34.1404 21.5259C41.4178 21.7149 48.9048 21.48 56.2122 21.4505L94.9165 21.4534L255.421 21.4306L290.01 21.4174L296.308 21.4143C296.805 21.414 298.159 21.3269 298.584 21.413C299.717 21.6429 301.985 23.0477 303 23.5353L250.03 23.6123L98.8815 23.6436L54.4653 23.549C47.5069 23.5332 39.9555 23.2156 33.052 23.572C31.0881 23.6736 29.3037 24.1879 27.9129 24.9013C26.4774 25.6363 25.9042 26.2623 25.6151 27.307L25.4257 28C24.349 27.9658 23.4967 27.6521 22.8038 27.2324C21.9315 26.6994 21.448 26.0148 21.6573 25.3117C21.9914 24.1677 23.6411 23.6275 25.311 23.0108C23.9451 23.0767 22.2803 23.0905 20.9993 23.3611C17.9637 24.0044 16.613 25.7408 13.0291 24.4247C13.1138 24.0752 13.2084 23.7545 13.4228 23.4176C12.6651 23.4176 12.5506 23.6542 11.9674 23.7092C10.9854 23.8015 9.17595 23.516 8.19914 23.3898L0 22.3399L12.1272 20.8379H12.124Z" fill="white"/>
</svg>
