<svg width="295" height="28" viewBox="0 0 295 28" fill="none" xmlns="http://www.w3.org/2000/svg">
<path d="M147.519 26.6289C148.444 24.364 149.92 22.3987 150.913 20.1608C152.979 15.5067 151.854 9.14551 149.93 4.59952L147.519 0L145.109 4.59952C143.185 9.14528 142.06 15.5062 144.126 20.1608C145.119 22.3987 146.594 24.3641 147.519 26.6289Z" fill="white"/>
<path d="M174.808 11.475C173.422 11.4904 171.964 11.4116 170.591 11.5809C164.035 12.2881 156.937 14.7627 152.683 20.0298C150.787 22.3771 149.819 25.0944 148.868 27.9071C149.769 27.0612 150.628 26.2658 151.681 25.6042C151.947 25.4853 152.418 25.1992 152.691 25.1528C153.375 25.0368 154.588 25.3817 155.336 25.4065C156.22 25.4359 157.136 25.3152 158.009 25.1869C165.282 24.1193 170.991 17.1925 174.808 11.475Z" fill="white"/>
<path d="M120.231 11.475C121.616 11.4904 123.075 11.4116 124.448 11.5809C131.004 12.2881 138.101 14.7627 142.355 20.0298C144.251 22.3771 145.22 25.0944 146.171 27.9071C145.27 27.0612 144.411 26.2658 143.358 25.6042C143.092 25.4853 142.62 25.1992 142.348 25.1528C141.664 25.0368 140.451 25.3817 139.702 25.4065C138.818 25.4359 137.903 25.3152 137.029 25.1869C129.757 24.1193 124.048 17.1925 120.231 11.475Z" fill="white"/>
<path d="M290.599 20.8379C290.412 21.177 290.217 21.6161 289.971 21.8619C290.036 21.4111 290.123 21.0948 290.28 20.6951C290.101 20.2712 290.066 20.025 289.714 19.8982C289.363 19.7728 288.925 19.9123 288.624 20.1865C287.618 21.1039 287.301 21.8801 286.042 22.1769V22.0286L286.165 21.9176C286.594 21.5187 286.996 21.0313 287.099 20.2674C287.184 19.6312 287.092 18.4362 286.791 17.9286C286.59 17.5913 286.2 17.0884 285.903 17C285.635 18.7268 285.36 19.7776 284.278 20.7532C283.755 21.2247 283.226 21.4816 282.606 21.5259C279.964 21.7149 277.246 21.48 274.593 21.4505L260.542 21.4534L202.273 21.4306L189.716 21.4174L187.43 21.4143C187.249 21.414 186.757 21.3269 186.603 21.413C186.192 21.6429 185.368 23.0477 185 23.5353L204.23 23.6123L259.102 23.6436L275.227 23.549C277.753 23.5332 280.495 23.2156 283.001 23.572C283.714 23.6736 284.362 24.1879 284.867 24.9013C285.388 25.6363 285.596 26.2623 285.701 27.307L285.77 28C286.16 27.9658 286.47 27.6521 286.721 27.2324C287.038 26.6994 287.214 26.0148 287.138 25.3117C287.016 24.1677 286.417 23.6275 285.811 23.0108C286.307 23.0767 286.911 23.0905 287.376 23.3611C288.478 24.0044 288.969 25.7408 290.27 24.4247C290.239 24.0752 290.205 23.7545 290.127 23.4176C290.402 23.4176 290.443 23.6542 290.655 23.7092C291.012 23.8015 291.669 23.516 292.023 23.3898L295 22.3399L290.597 20.8379H290.599Z" fill="white"/>
<path d="M4.44146 20.8379C4.62954 21.177 4.82675 21.6161 5.07511 21.8619C5.00935 21.4111 4.92168 21.0948 4.76282 20.6951C4.9436 20.2712 4.9783 20.025 5.33437 19.8982C5.68861 19.7728 6.13053 19.9123 6.43368 20.1865C7.44892 21.1039 7.76851 21.8801 9.03936 22.1769V22.0286L8.91521 21.9176C8.48242 21.5187 8.07704 21.0313 7.97298 20.2674C7.88713 19.6312 7.98023 18.4362 8.28338 17.9286C8.48607 17.5913 8.8805 17.0884 9.17995 17C9.45017 18.7268 9.7277 19.7776 10.8196 20.7532C11.3474 21.2247 11.8805 21.4816 12.5069 21.5259C15.1728 21.7149 17.9156 21.48 20.5926 21.4505L34.7714 21.4534L93.57 21.4306L106.241 21.4174L108.548 21.4143C108.731 21.414 109.227 21.3269 109.382 21.413C109.797 21.6429 110.628 23.0477 111 23.5353L91.5951 23.6123L36.2239 23.6436L19.9526 23.549C17.4035 23.5332 14.6372 23.2156 12.1082 23.572C11.3887 23.6736 10.735 24.1879 10.2255 24.9013C9.69965 25.6363 9.48965 26.2623 9.38377 27.307L9.31436 28C8.91993 27.9658 8.6077 27.6521 8.35386 27.2324C8.03433 26.6994 7.85721 26.0148 7.93387 25.3117C8.05625 24.1677 8.66062 23.6275 9.27235 23.0108C8.77198 23.0767 8.16208 23.0905 7.69282 23.3611C6.58077 24.0044 6.08594 25.7408 4.77303 24.4247C4.80408 24.0752 4.83873 23.7545 4.91727 23.4176C4.63969 23.4176 4.59774 23.6542 4.38408 23.7092C4.02436 23.8015 3.36149 23.516 3.00365 23.3898L0 22.3399L4.44264 20.8379H4.44146Z" fill="white"/>
</svg>
