<svg width="15" height="14" viewBox="0 0 15 14" fill="none" xmlns="http://www.w3.org/2000/svg">
<path d="M0.995871 4.06958L7.16032 0.372408C7.37145 0.245775 7.63525 0.245822 7.84632 0.372528L14.0055 4.06956C14.1059 4.12981 14.1673 4.2383 14.1673 4.35536V12.8333C14.1673 13.2015 13.8689 13.5 13.5007 13.5H1.50065C1.13246 13.5 0.833984 13.2015 0.833984 12.8333V4.35544C0.833984 4.23833 0.895438 4.12982 0.995871 4.06958ZM2.16732 4.92175V12.1667H12.834V4.92144L7.50312 1.72159L2.16732 4.92175ZM7.54045 8.63221L11.0711 5.65689L11.9303 6.67648L7.54998 10.3678L3.07666 6.68114L3.92464 5.65221L7.54045 8.63221Z" fill="#912728"/>
</svg>
