<svg width="20" height="21" viewBox="0 0 20 21" fill="none" xmlns="http://www.w3.org/2000/svg">
<path d="M10.002 7.5C8.34457 7.5 7.00195 8.8431 7.00195 10.5C7.00195 12.1573 8.34507 13.5 10.002 13.5C11.6593 13.5 13.002 12.1569 13.002 10.5C13.002 8.8427 11.6589 7.5 10.002 7.5ZM10.002 5.5C12.7624 5.5 15.002 7.7371 15.002 10.5C15.002 13.2605 12.7649 15.5 10.002 15.5C7.24148 15.5 5.00195 13.2629 5.00195 10.5C5.00195 7.73953 7.23905 5.5 10.002 5.5ZM16.502 5.24915C16.502 5.93926 15.9412 6.49917 15.252 6.49917C14.5619 6.49917 14.002 5.9384 14.002 5.24915C14.002 4.5599 14.5627 4 15.252 4C15.9403 3.99913 16.502 4.5599 16.502 5.24915ZM10.002 2.5C7.52747 2.5 7.12415 2.50655 5.97324 2.5578C5.18912 2.59461 4.6635 2.70007 4.17513 2.88967C3.74113 3.05799 3.42806 3.25898 3.09449 3.59255C2.75964 3.9274 2.55901 4.23963 2.39137 4.67383C2.20133 5.16332 2.0959 5.68811 2.05975 6.47115C2.008 7.5752 2.00195 7.96105 2.00195 10.5C2.00195 12.9745 2.0085 13.3778 2.05974 14.5286C2.09657 15.3124 2.20217 15.8388 2.39131 16.326C2.56007 16.7606 2.76147 17.0744 3.09343 17.4064C3.4296 17.7421 3.74276 17.9434 4.17284 18.1094C4.66716 18.3005 5.19245 18.4061 5.97309 18.4422C7.07715 18.4939 7.463 18.5 10.002 18.5C12.4765 18.5 12.8798 18.4934 14.0306 18.4422C14.8127 18.4055 15.3395 18.2996 15.828 18.1106C16.2614 17.9423 16.5762 17.7402 16.9084 17.4085C17.2446 17.0718 17.4455 16.7594 17.6117 16.3283C17.8023 15.8358 17.9081 15.3098 17.9442 14.5289C17.9959 13.4248 18.002 13.0389 18.002 10.5C18.002 8.02552 17.9954 7.62221 17.9442 6.47137C17.9074 5.68906 17.8015 5.16149 17.6123 4.67318C17.4444 4.24038 17.2427 3.92635 16.9094 3.59255C16.574 3.25715 16.2626 3.05693 15.8281 2.88942C15.339 2.69954 14.8134 2.59396 14.0308 2.55781C12.9268 2.50605 12.5409 2.5 10.002 2.5ZM10.002 0.5C12.7186 0.5 13.0578 0.51 14.1245 0.56C15.1886 0.60917 15.9145 0.7775 16.552 1.025C17.2111 1.27917 17.7678 1.6225 18.3236 2.17833C18.8786 2.73417 19.222 3.2925 19.477 3.95C19.7236 4.58667 19.892 5.31333 19.942 6.3775C19.9895 7.44417 20.002 7.78333 20.002 10.5C20.002 13.2167 19.992 13.5558 19.942 14.6225C19.8928 15.6867 19.7236 16.4125 19.477 17.05C19.2228 17.7092 18.8786 18.2658 18.3236 18.8217C17.7678 19.3767 17.2086 19.72 16.552 19.975C15.9145 20.2217 15.1886 20.39 14.1245 20.44C13.0578 20.4875 12.7186 20.5 10.002 20.5C7.28528 20.5 6.94611 20.49 5.87945 20.44C4.81528 20.3908 4.09028 20.2217 3.45195 19.975C2.79361 19.7208 2.23611 19.3767 1.68028 18.8217C1.12445 18.2658 0.781953 17.7067 0.526953 17.05C0.279453 16.4125 0.111953 15.6867 0.0619533 14.6225C0.0144533 13.5558 0.00195312 13.2167 0.00195312 10.5C0.00195312 7.78333 0.0119533 7.44417 0.0619533 6.3775C0.111113 5.3125 0.279453 4.5875 0.526953 3.95C0.781113 3.29167 1.12445 2.73417 1.68028 2.17833C2.23611 1.6225 2.79445 1.28 3.45195 1.025C4.08945 0.7775 4.81445 0.61 5.87945 0.56C6.94611 0.5125 7.28528 0.5 10.002 0.5Z" fill="#912728"/>
</svg>
