<svg width="18" height="19" viewBox="0 0 18 19" fill="none" xmlns="http://www.w3.org/2000/svg">
<path d="M15.3372 15.839H12.6717V11.6622C12.6717 10.6662 12.6515 9.3845 11.2827 9.3845C9.89297 9.3845 9.68067 10.4683 9.68067 11.5887V15.839H7.01517V7.25H9.57567V8.4207H9.61017C9.96797 7.7457 10.838 7.03325 12.1377 7.03325C14.8385 7.03325 15.338 8.8108 15.338 11.1245L15.3372 15.839ZM4.0047 6.07475C3.1467 6.07475 2.45745 5.38025 2.45745 4.526C2.45745 3.6725 3.14745 2.97875 4.0047 2.97875C4.8597 2.97875 5.5527 3.6725 5.5527 4.526C5.5527 5.38025 4.85895 6.07475 4.0047 6.07475ZM5.3412 15.839H2.6682V7.25H5.3412V15.839ZM16.6707 0.5H1.3302C0.595953 0.5 0.00195312 1.0805 0.00195312 1.79675V17.2033C0.00195312 17.9202 0.595953 18.5 1.3302 18.5H16.6685C17.402 18.5 18.002 17.9202 18.002 17.2033V1.79675C18.002 1.0805 17.402 0.5 16.6685 0.5H16.6707Z" fill="#912728"/>
</svg>
