<svg width="12" height="16" viewBox="0 0 12 16" fill="none" xmlns="http://www.w3.org/2000/svg">
<path d="M6 15.3188L1.75736 11.0762C-0.585787 8.73296 -0.585787 4.934 1.75736 2.59086C4.10051 0.247709 7.89947 0.247709 10.2427 2.59086C12.5858 4.934 12.5858 8.73296 10.2427 11.0762L6 15.3188ZM9.2998 10.1333C11.1223 8.3109 11.1223 5.35611 9.2998 3.53366C7.4774 1.71122 4.52261 1.71122 2.70017 3.53366C0.87772 5.35611 0.87772 8.3109 2.70017 10.1333L6 13.4332L9.2998 10.1333ZM6 8.16683C5.2636 8.16683 4.66667 7.5699 4.66667 6.8335C4.66667 6.09712 5.2636 5.50016 6 5.50016C6.7364 5.50016 7.33333 6.09712 7.33333 6.8335C7.33333 7.5699 6.7364 8.16683 6 8.16683Z" fill="white"/>
</svg>
