<svg width="19" height="18" viewBox="0 0 19 18" fill="none" xmlns="http://www.w3.org/2000/svg">
<path d="M9.5 9.75C10.7426 9.75 11.75 8.74264 11.75 7.5C11.75 6.25736 10.7426 5.25 9.5 5.25C8.25736 5.25 7.25 6.25736 7.25 7.5C7.25 8.74264 8.25736 9.75 9.5 9.75Z" stroke="#E5D4B3" stroke-width="1.5" stroke-linecap="round" stroke-linejoin="round"/>
<path d="M9.5 1.5C7.9087 1.5 6.38258 2.13214 5.25736 3.25736C4.13214 4.38258 3.5 5.9087 3.5 7.5C3.5 8.919 3.8015 9.8475 4.625 10.875L9.5 16.5L14.375 10.875C15.1985 9.8475 15.5 8.919 15.5 7.5C15.5 5.9087 14.8679 4.38258 13.7426 3.25736C12.6174 2.13214 11.0913 1.5 9.5 1.5Z" stroke="#E5D4B3" stroke-width="1.5" stroke-linecap="round" stroke-linejoin="round"/>
</svg>
