<svg width="18" height="19" viewBox="0 0 18 19" fill="none" xmlns="http://www.w3.org/2000/svg">
<path d="M15.9 6.8C16.275 7.085 16.5 7.5275 16.5 8V15.5C16.5 15.8978 16.342 16.2794 16.0607 16.5607C15.7794 16.842 15.3978 17 15 17H3C2.60218 17 2.22064 16.842 1.93934 16.5607C1.65804 16.2794 1.5 15.8978 1.5 15.5V8C1.5 7.76713 1.55422 7.53746 1.65836 7.32918C1.7625 7.1209 1.91371 6.93972 2.1 6.8L8.1 2.3C8.35964 2.10527 8.67544 2 9 2C9.32456 2 9.64036 2.10527 9.9 2.3L15.9 6.8Z" stroke="white" stroke-width="1.5" stroke-linecap="round" stroke-linejoin="round"/>
<path d="M16.5 8L9.7725 12.275C9.54095 12.4201 9.27324 12.497 9 12.497C8.72676 12.497 8.45905 12.4201 8.2275 12.275L1.5 8" stroke="white" stroke-width="1.5" stroke-linecap="round" stroke-linejoin="round"/>
</svg>
